<?xml version="1.0" encoding="utf-8"?>
<!-- Generator: Adobe Illustrator 26.4.1, SVG Export Plug-In . SVG Version: 6.00 Build 0)  -->
<svg version="1.1" id="Layer_1" xmlns="http://www.w3.org/2000/svg" xmlns:xlink="http://www.w3.org/1999/xlink" x="0px" y="0px"
	 viewBox="0 0 43 37" style="enable-background:new 0 0 43 37;" xml:space="preserve">
<style type="text/css">
	.st0{fill:none;stroke:#AEAEAE;stroke-width:2;stroke-linecap:round;stroke-linejoin:round;}
</style>
<path class="st0" d="M21.1,9.8c0.1-0.7,0.2-1.3,0.5-2C22,6.7,22.9,5.7,23.9,5c1.1-0.7,2.3-1.1,3.6-1.1c1.7,0,3.4,0.7,4.6,1.9
	C33.3,7,34,8.6,34,10.3c0,1.3-0.4,2.5-1.1,3.6c-0.7,1.1-1.7,1.9-2.9,2.4c-0.5,0.2-1,0.3-1.5,0.4 M30.8,27.1h5.8
	c0.3,0,0.7-0.1,0.9-0.4c0.2-0.2,0.4-0.6,0.4-0.9c0-2.4-1-4.7-2.6-6.4c-1.7-1.7-4-2.6-6.4-2.6"/>
<path class="st0" d="M14.2,16.7c-1.3-0.2-2.4-0.9-3.3-1.8C10,14,9.4,12.8,9.2,11.6C8.9,10.3,9,9,9.5,7.9C10,6.7,10.9,5.7,11.9,5
	c1.1-0.7,2.3-1.1,3.6-1.1c1.7,0,3.4,0.7,4.6,1.9c1,1,1.6,2.3,1.8,3.6 M14.2,16.8c-2.4,0-4.7,1-6.4,2.6c-1.7,1.7-2.6,4-2.6,6.4
	c0,0.3,0.1,0.7,0.4,0.9c0.2,0.2,0.6,0.4,0.9,0.4h5.8"/>
<path class="st0" d="M28,16.3c0,1.3-0.4,2.5-1.1,3.6c-0.7,1.1-1.7,1.9-2.9,2.4c-1.2,0.5-2.5,0.6-3.7,0.4c-1.3-0.2-2.4-0.9-3.3-1.8
	c-0.9-0.9-1.5-2.1-1.8-3.3S15,15,15.5,13.9c0.5-1.2,1.3-2.2,2.4-2.9c1.1-0.7,2.3-1.1,3.6-1.1c1.7,0,3.4,0.7,4.6,1.9
	C27.3,13,28,14.6,28,16.3z M22.8,22.8h-2.6c-2.4,0-4.7,1-6.4,2.6c-1.7,1.7-2.6,4-2.6,6.4c0,0.3,0.1,0.7,0.4,0.9
	c0.2,0.2,0.6,0.4,0.9,0.4h18.1c0.3,0,0.7-0.1,0.9-0.4c0.2-0.2,0.4-0.6,0.4-0.9c0-2.4-1-4.7-2.6-6.4C27.5,23.7,25.2,22.8,22.8,22.8z"
	/>
</svg>
