<svg width="35" height="35" viewBox="0 0 35 35" fill="none" xmlns="http://www.w3.org/2000/svg">
<path d="M21.875 17.5C21.875 18.3653 21.6184 19.2112 21.1377 19.9306C20.6569 20.6501 19.9737 21.2108 19.1742 21.542C18.3748 21.8731 17.4951 21.9597 16.6465 21.7909C15.7978 21.6221 15.0183 21.2054 14.4064 20.5936C13.7946 19.9817 13.3779 19.2022 13.2091 18.3535C13.0403 17.5049 13.1269 16.6252 13.458 15.8258C13.7892 15.0263 14.3499 14.3431 15.0694 13.8623C15.7888 13.3816 16.6347 13.125 17.5 13.125C18.6603 13.125 19.7731 13.5859 20.5936 14.4064C21.4141 15.2269 21.875 16.3397 21.875 17.5ZM29.1667 14.5833H28.3063C28.0048 14.5821 27.7111 14.4875 27.4656 14.3126C27.2201 14.1376 27.0349 13.8908 26.9354 13.6063C26.8057 13.3331 26.764 13.0264 26.8163 12.7285C26.8685 12.4307 27.0121 12.1564 27.2271 11.9437L27.825 11.3458C27.9617 11.2103 28.0702 11.049 28.1442 10.8713C28.2183 10.6935 28.2564 10.5029 28.2564 10.3104C28.2564 10.1179 28.2183 9.92729 28.1442 9.74958C28.0702 9.57186 27.9617 9.41057 27.825 9.275L25.7542 7.18958C25.6186 7.0529 25.4573 6.9444 25.2796 6.87037C25.1019 6.79633 24.9113 6.75821 24.7188 6.75821C24.5262 6.75821 24.3356 6.79633 24.1579 6.87037C23.9802 6.9444 23.8189 7.0529 23.6833 7.18958L23.0854 7.7875C22.8727 8.00249 22.5985 8.14604 22.3007 8.1983C22.0028 8.25055 21.6961 8.20892 21.4229 8.07917C21.1305 7.98383 20.8758 7.79851 20.6951 7.54969C20.5143 7.30086 20.4169 7.00128 20.4167 6.69375V5.83333C20.4167 5.44656 20.263 5.07563 19.9895 4.80214C19.716 4.52865 19.3451 4.375 18.9583 4.375H16.0417C15.6549 4.375 15.284 4.52865 15.0105 4.80214C14.737 5.07563 14.5833 5.44656 14.5833 5.83333V6.69375C14.5821 6.99521 14.4875 7.2889 14.3126 7.53438C14.1376 7.77987 13.8908 7.9651 13.6063 8.06458V8.06458C13.3331 8.19434 13.0264 8.23597 12.7285 8.18371C12.4307 8.13146 12.1564 7.9879 11.9437 7.77292L11.3458 7.175C11.2103 7.03831 11.049 6.92982 10.8713 6.85578C10.6935 6.78175 10.5029 6.74363 10.3104 6.74363C10.1179 6.74363 9.92729 6.78175 9.74958 6.85578C9.57186 6.92982 9.41057 7.03831 9.275 7.175L7.18958 9.24583C7.0529 9.3814 6.9444 9.5427 6.87037 9.72041C6.79633 9.89812 6.75821 10.0887 6.75821 10.2813C6.75821 10.4738 6.79633 10.6644 6.87037 10.8421C6.9444 11.0198 7.0529 11.1811 7.18958 11.3167L7.7875 11.9146C8.00249 12.1273 8.14604 12.4015 8.1983 12.6993C8.25055 12.9972 8.20892 13.3039 8.07917 13.5771C7.97969 13.8617 7.79446 14.1084 7.54897 14.2834C7.30348 14.4584 7.0098 14.553 6.70833 14.5542H5.83333C5.44656 14.5542 5.07563 14.7078 4.80214 14.9813C4.52865 15.2548 4.375 15.6257 4.375 16.0125V18.9292C4.375 19.3159 4.52865 19.6869 4.80214 19.9604C5.07563 20.2339 5.44656 20.3875 5.83333 20.3875H6.69375C6.99521 20.3887 7.2889 20.4833 7.53438 20.6583C7.77987 20.8332 7.9651 21.08 8.06458 21.3646V21.3646C8.19434 21.6377 8.23597 21.9445 8.18371 22.2423C8.13146 22.5402 7.9879 22.8144 7.77292 23.0271L7.175 23.625C7.03831 23.7606 6.92982 23.9219 6.85578 24.0996C6.78175 24.2773 6.74363 24.4679 6.74363 24.6604C6.74363 24.8529 6.78175 25.0435 6.85578 25.2213C6.92982 25.399 7.03831 25.5603 7.175 25.6958L9.23125 27.7521C9.36682 27.8888 9.52811 27.9973 9.70583 28.0713C9.88354 28.1453 10.0741 28.1835 10.2667 28.1835C10.4592 28.1835 10.6498 28.1453 10.8275 28.0713C11.0052 27.9973 11.1665 27.8888 11.3021 27.7521L11.9 27.1542C12.1127 26.9392 12.3869 26.7956 12.6848 26.7434C12.9826 26.6911 13.2894 26.7327 13.5625 26.8625C13.8471 26.962 14.0938 27.1472 14.2688 27.3927C14.4438 27.6382 14.5384 27.9319 14.5396 28.2333V29.1667C14.5396 29.5534 14.6932 29.9244 14.9667 30.1979C15.2402 30.4714 15.6111 30.625 15.9979 30.625H18.9146C19.3014 30.625 19.6723 30.4714 19.9458 30.1979C20.2193 29.9244 20.3729 29.5534 20.3729 29.1667V28.3063C20.3741 28.0048 20.4687 27.7111 20.6437 27.4656C20.8187 27.2201 21.0654 27.0349 21.35 26.9354C21.6232 26.8057 21.9299 26.764 22.2277 26.8163C22.5256 26.8685 22.7998 27.0121 23.0125 27.2271L23.6104 27.825C23.746 27.9617 23.9073 28.0702 24.085 28.1442C24.2627 28.2183 24.4533 28.2564 24.6458 28.2564C24.8384 28.2564 25.029 28.2183 25.2067 28.1442C25.3844 28.0702 25.5457 27.9617 25.6813 27.825L27.7375 25.7688C27.8742 25.6332 27.9827 25.4719 28.0567 25.2942C28.1308 25.1165 28.1689 24.9258 28.1689 24.7333C28.1689 24.5408 28.1308 24.3502 28.0567 24.1725C27.9827 23.9948 27.8742 23.8335 27.7375 23.6979L27.1396 23.1C26.9246 22.8873 26.781 22.6131 26.7288 22.3152C26.6765 22.0174 26.7182 21.7107 26.8479 21.4375V21.4375C26.9474 21.1529 27.1326 20.9062 27.3781 20.7312C27.6236 20.5562 27.9173 20.4616 28.2188 20.4604H29.1667C29.5534 20.4604 29.9244 20.3068 30.1979 20.0333C30.4714 19.7598 30.625 19.3889 30.625 19.0021V16.0417C30.625 15.6549 30.4714 15.284 30.1979 15.0105C29.9244 14.737 29.5534 14.5833 29.1667 14.5833Z" stroke="#AEAEAE" stroke-width="2" stroke-linecap="round" stroke-linejoin="round"/>
</svg>
