<?xml version="1.0" encoding="utf-8"?>
<!-- Generator: Adobe Illustrator 26.4.1, SVG Export Plug-In . SVG Version: 6.00 Build 0)  -->
<svg version="1.1" id="Layer_1" xmlns="http://www.w3.org/2000/svg" xmlns:xlink="http://www.w3.org/1999/xlink" x="0px" y="0px"
	 viewBox="0 0 30 31" style="enable-background:new 0 0 30 31;" xml:space="preserve">
<style type="text/css">
	.st0{fill:#AEAEAE;}
</style>
<path class="st0" d="M19,16.4h-3.2v13.9c3.4-0.2,6.5-1.6,9-3.7C21.5,24.3,19.3,20.6,19,16.4z"/>
<path class="st0" d="M20.5,16.4c0.3,3.7,2.3,7,5.4,9.1c2.2-2.4,3.6-5.6,3.8-9.1H20.5z"/>
<path class="st0" d="M20.5,14.6h9.2c-0.2-3.5-1.6-6.6-3.8-9C22.9,7.6,20.8,10.9,20.5,14.6z"/>
<path class="st0" d="M24.8,4.4c-2.4-2.1-5.5-3.5-9-3.7v13.8H19C19.3,10.4,21.5,6.7,24.8,4.4z"/>
<path class="st0" d="M10.8,14.6h3.2V0.8C10.6,1,7.5,2.4,5.1,4.5C8.4,6.8,10.6,10.4,10.8,14.6z"/>
<path class="st0" d="M4,5.6C1.9,8,0.5,11.1,0.3,14.6h9.1C9,10.9,7,7.7,4,5.6z"/>
<path class="st0" d="M5.1,26.5c2.4,2.2,5.5,3.5,8.9,3.8V16.4h-3.2C10.6,20.6,8.4,24.2,5.1,26.5z"/>
<path class="st0" d="M9.3,16.4H0.2c0.2,3.5,1.6,6.6,3.8,9C7,23.3,9.1,20,9.3,16.4z"/>
</svg>
